<?xml version="1.0" standalone="no"?>
<!DOCTYPE svg PUBLIC "-//W3C//DTD SVG 20010904//EN"
 "http://www.w3.org/TR/2001/REC-SVG-20010904/DTD/svg10.dtd">
<svg version="1.0" xmlns="http://www.w3.org/2000/svg"
 width="416.000000pt" height="416.000000pt" viewBox="0 0 416.000000 416.000000"
 preserveAspectRatio="xMidYMid meet">
<metadata>
Created by potrace 1.11, written by Peter Selinger 2001-2013
</metadata>
<g transform="translate(0.000000,416.000000) scale(0.100000,-0.100000)"
fill="#000000" stroke="none">
<path d="M0 2080 l0 -2080 2080 0 2080 0 0 2080 0 2080 -2080 0 -2080 0 0
-2080z m2207 1024 c-3 -3 -12 -4 -19 -1 -8 3 -5 6 6 6 11 1 17 -2 13 -5z m118
-16 c6 -4 2 -8 -7 -8 -10 0 -18 7 -18 17 0 9 3 12 8 7 4 -5 12 -12 17 -16z
m-222 -5 c-7 -2 -19 -2 -25 0 -7 3 -2 5 12 5 14 0 19 -2 13 -5z m202 -76 c51
-18 143 -85 162 -117 9 -16 21 -30 25 -30 4 0 8 -9 8 -20 0 -11 4 -20 8 -20
16 0 37 -98 36 -170 -3 -137 -73 -245 -199 -305 -64 -31 -81 -35 -151 -35 -86
0 -125 11 -195 52 -159 94 -217 317 -124 478 47 82 165 167 250 181 49 8 140
1 180 -14z m-250 -736 c57 -20 80 -23 160 -19 l93 5 6 -41 c15 -92 18 -297 6
-326 -16 -38 -35 -43 -112 -30 -120 21 -183 32 -233 41 -27 5 -70 12 -95 15
-25 4 -51 11 -57 17 -16 11 -18 123 -3 132 6 3 10 14 10 23 1 16 24 65 81 172
35 65 40 70 61 50 10 -9 47 -27 83 -39z m-214 -25 c-6 -7 -20 -31 -30 -52 -16
-32 -26 -39 -67 -50 -27 -7 -65 -13 -84 -14 -31 0 -37 4 -47 31 -9 23 -9 37
-1 55 12 25 21 29 98 38 25 3 63 9 85 14 45 10 64 0 46 -22z m602 -84 c23 -15
63 -38 90 -51 40 -21 47 -28 47 -54 0 -36 -35 -70 -62 -61 -11 3 -43 20 -73
36 -51 30 -53 34 -57 77 -3 25 -8 54 -12 64 -12 26 18 22 67 -11z m-520 -313
c38 -10 40 -17 21 -78 -2 -7 -11 -48 -20 -90 -20 -95 -28 -111 -60 -111 -57 0
-95 38 -83 84 20 85 29 128 29 150 0 57 28 69 113 45z m333 -60 c19 -7 21 -13
17 -56 -3 -26 -9 -64 -14 -83 -5 -19 -9 -51 -9 -70 0 -20 -5 -41 -12 -48 -14
-14 -86 -16 -107 -3 -16 10 -17 115 -1 157 6 14 10 45 10 68 0 23 3 46 7 49 7
7 76 -1 109 -14z m-316 -501 c1 -7 1 -83 0 -167 -1 -224 -10 -236 -160 -232
-129 4 -160 32 -160 145 0 49 5 71 23 97 l23 34 89 0 c89 0 89 0 89 -25 1 -24
-2 -25 -74 -30 l-75 -5 1 -70 1 -70 86 -3 87 -3 0 171 0 170 35 0 c21 0 35 -5
35 -12z m1125 -7 c10 -31 -5 -52 -34 -49 -21 2 -27 9 -29 36 -3 30 -1 32 27
32 20 0 32 -6 36 -19z m129 3 c4 -9 6 -78 5 -153 0 -75 3 -144 6 -153 4 -9 16
-18 28 -20 24 -3 34 -42 18 -67 -7 -11 -14 -11 -46 0 -62 23 -65 36 -66 225 0
93 0 172 0 177 2 14 49 7 55 -9z m416 4 c1 -7 1 -87 1 -177 0 -186 -7 -210
-64 -213 -43 -2 -84 -6 -130 -11 -80 -9 -116 35 -118 145 -2 71 14 117 47 133
11 5 55 9 97 7 l77 -4 0 -29 c0 -29 0 -29 -59 -29 -90 0 -91 -1 -91 -81 l0
-69 85 0 c74 0 85 2 86 18 0 9 0 86 0 170 l-1 152 35 0 c21 0 35 -5 35 -12z
m-1317 -71 c34 -35 92 -96 128 -135 37 -40 70 -72 73 -72 3 0 6 59 6 131 l0
130 32 -3 32 -3 4 -182 4 -182 -26 -12 c-28 -13 -13 -26 -233 209 -27 28 -51
52 -54 52 -2 0 -4 -60 -4 -132 l0 -133 -25 0 c-14 -1 -28 4 -32 9 -4 6 -7 90
-8 188 0 159 2 178 17 187 10 6 19 11 21 11 2 0 31 -28 65 -63z m-1368 18 l0
-30 -135 0 -135 0 0 -158 c1 -156 1 -158 -22 -163 -52 -13 -53 -8 -53 184 0
127 4 182 12 190 9 9 57 12 173 10 l160 -3 0 -30z m655 -90 l0 -34 -87 -3 -88
-3 0 -105 0 -105 -35 0 -35 0 -3 99 c-4 157 10 174 148 179 47 2 88 4 93 5 4
1 7 -14 7 -33z m1481 -62 c0 -54 3 -111 5 -127 9 -52 -3 -76 -36 -76 l-30 0 0
143 c0 79 3 147 7 150 3 4 17 7 30 7 22 0 23 -2 24 -97z m-1818 72 c23 -17 36
-72 37 -151 0 -74 -21 -98 -95 -110 -106 -16 -154 -7 -201 37 -25 23 -25 26
-19 109 10 123 18 130 154 130 75 -1 111 -5 124 -15z m1675 -5 c12 -12 23 -26
23 -33 12 -108 -18 -136 -136 -131 -70 3 -70 3 -73 33 l-3 30 72 3 c55 2 74 7
83 20 19 31 -6 41 -91 39 -43 -1 -82 -6 -87 -11 -11 -11 -17 -96 -10 -122 5
-15 17 -18 80 -18 l74 0 0 -40 c0 -44 1 -44 -33 -31 -14 6 -28 7 -31 3 -23
-22 -78 -8 -123 32 -20 17 -23 29 -23 104 0 69 4 89 21 113 20 29 21 29 128
29 94 0 110 -2 129 -20z m-2107 -40 c89 0 89 0 89 -25 0 -32 -3 -33 -122 -37
l-98 -4 0 31 c0 36 8 48 28 40 7 -3 54 -5 103 -5z"/>
<path d="M2075 2928 c-120 -41 -183 -108 -192 -206 -12 -133 80 -226 270 -271
59 -14 85 -14 144 0 139 33 203 101 203 214 0 100 -59 183 -168 235 -26 12
-55 26 -64 31 -23 12 -155 10 -193 -3z"/>
<path d="M1032 1098 c-9 -12 -8 -67 3 -115 5 -22 10 -23 90 -23 71 0 84 3 89
18 7 23 2 105 -8 120 -10 17 -160 16 -174 0z"/>
</g>
</svg>
