<?xml version="1.0" standalone="no"?><!DOCTYPE svg PUBLIC "-//W3C//DTD SVG 1.1//EN" "http://www.w3.org/Graphics/SVG/1.1/DTD/svg11.dtd"><svg class="icon" height="512" viewBox="0 0 1024 1024" version="1.1" xmlns="http://www.w3.org/2000/svg"><path d="M389.12 215.04l-81.92 0c-50.7904 0-92.16 41.3696-92.16 92.16l0 81.92c0 50.7904 41.3696 92.16 92.16 92.16l174.08 0L481.28 307.2C481.28 256.4096 439.9104 215.04 389.12 215.04zM460.8 460.8 307.2 460.8c-39.5264 0-71.68-32.1536-71.68-71.68l0-81.92c0-39.5264 32.1536-71.68 71.68-71.68l81.92 0c39.5264 0 71.68 32.1536 71.68 71.68L460.8 460.8zM215.04 634.88l0 81.92c0 50.7904 41.3696 92.16 92.16 92.16l81.92 0c50.7904 0 92.16-41.3696 92.16-92.16L481.28 542.72 307.2 542.72C256.4096 542.72 215.04 584.0896 215.04 634.88zM460.8 716.8c0 39.5264-32.1536 71.68-71.68 71.68l-81.92 0c-39.5264 0-71.68-32.1536-71.68-71.68l0-81.92c0-39.5264 32.1536-71.68 71.68-71.68l153.6 0L460.8 716.8zM716.8 215.04l-81.92 0c-50.7904 0-92.16 41.3696-92.16 92.16l0 174.08 174.08 0c50.7904 0 92.16-41.3696 92.16-92.16l0-81.92C808.96 256.4096 767.5904 215.04 716.8 215.04zM788.48 389.12c0 39.5264-32.1536 71.68-71.68 71.68L563.2 460.8 563.2 307.2c0-39.5264 32.1536-71.68 71.68-71.68l81.92 0c39.5264 0 71.68 32.1536 71.68 71.68L788.48 389.12zM716.8 542.72 542.72 542.72l0 174.08c0 50.7904 41.3696 92.16 92.16 92.16l81.92 0c50.7904 0 92.16-41.3696 92.16-92.16l0-81.92C808.96 584.0896 767.5904 542.72 716.8 542.72zM788.48 716.8c0 39.5264-32.1536 71.68-71.68 71.68l-81.92 0c-39.5264 0-71.68-32.1536-71.68-71.68L563.2 563.2l153.6 0c39.5264 0 71.68 32.1536 71.68 71.68L788.48 716.8z" /></svg>